<?xml version="1.0" standalone="no"?>
<svg xmlns="http://www.w3.org/2000/svg"
     width="512" height="512" viewBox="0 0 512 512"
     preserveAspectRatio="xMidYMid meet">
<g transform="translate(0,512) scale(0.1,-0.1)" fill="#000000" stroke="none">

<path d="M2437 3594 c36 -23 54 -58 60 -118 5 -53 7 -55 32 -50
52 9 298 36 371 41 67 4 79 2 110 -19 45 -31 60 -61 60 -127 0 -49 -3 -57 -35 -87
-58 -55 -45 -55 -556 12 l-125 16 -288 -37 c-168 -22 -302 -34 -322 -31 -45 9 -100 64
-106 107 -8 54 11 107 51 140 36 31 36 31 126 25 50 -3 157 -14 239 -24 100
-12 149 -15 151 -8 2 6 6 32 10 58 7 57 43 104 88 117 39 12 104 5 134 -15z"/>

<path d="M2489 3096 c7 -5 11 -44 11 -102 l0 -94 43 0
c73 0 114 -18 180 -79 l62 -58 110 -6 c197 -11 317 -46 440 -128
182 -122 298 -322 312 -541 7 -101 -4 -137 -51 -171
-28 -20 -44 -22 -195 -25 -90 -2 -184 -1 -207 3 -62 9 -100 50 -114 123
-24 129 -56 154 -206 160 l-101 4 -29 -38 c-40 -52 -133 -118 -202 -144
-195 -74 -404 -30 -548 116 l-63 64 -244 0 c-237 0 -245 1 -278 23
-57 38 -60 51 -57 273 3 186 5 204 23 224 47 52 64 55 315 58 l234 4
63 58 c66 62 106 80 180 80 l42 0 3 97 3 98 30 7 c35 8 228 3 244 -6z"/>

<path d="M3404 1721 c9 -10 37 -69 62 -132 38 -93 45 -120 40 -153
-23 -142 -198 -173 -263 -46 -13 24 -23 55 -23 68
0 28 86 240 108 265 20 22 55 22 76 -2z"/>

</g>
</svg>
